<svg width="105" height="55" viewBox="0 0 105 55" fill="none" xmlns="http://www.w3.org/2000/svg">
<g clip-path="url(#clip0)">
<path d="M52.537 54.8372C81.4243 54.8372 104.842 42.5615 104.842 27.4186C104.842 12.2758 81.4243 0.00012207 52.537 0.00012207C23.6498 0.00012207 0.232056 12.2758 0.232056 27.4186C0.232056 42.5615 23.6498 54.8372 52.537 54.8372Z" fill="url(#paint0_radial)"/>
<path d="M52.5371 52.8001C80.2959 52.8001 102.799 41.4364 102.799 27.4186C102.799 13.4008 80.2959 2.03711 52.5371 2.03711C24.7783 2.03711 2.27527 13.4008 2.27527 27.4186C2.27527 41.4364 24.7783 52.8001 52.5371 52.8001Z" fill="#6181B6"/>
<path d="M62.712 35.6483L65.2047 22.8557C65.7768 19.9631 65.2864 17.8039 63.8154 16.4594C62.3851 15.1557 59.9333 14.5039 56.3374 14.5039H52.0059L53.2318 8.14831C53.2726 7.90387 53.2318 7.65942 53.0683 7.45572C52.9049 7.25201 52.7006 7.17053 52.4554 7.17053H46.4893C46.0807 7.17053 45.7538 7.45572 45.6721 7.82238L43.016 21.3891C42.7708 19.8409 42.1987 18.5372 41.218 17.4779C39.4609 15.4816 36.723 14.4631 33.0045 14.4631H21.5219C21.1132 14.4631 20.7863 14.7483 20.7046 15.115L15.3515 42.6557C15.3107 42.9002 15.3515 43.1446 15.515 43.3483C15.6784 43.552 15.8828 43.6335 16.1279 43.6335H22.1348C22.5435 43.6335 22.8704 43.3483 22.9521 42.9816L24.2597 36.3409H28.7138C31.043 36.3409 33.0453 36.0965 34.5573 35.6076C36.1509 35.0779 37.5811 34.2224 38.8479 33.0409C39.8695 32.1039 40.7276 31.0446 41.3814 29.9039L40.319 35.4039C40.2781 35.6483 40.319 35.8928 40.4824 36.0965C40.6459 36.3002 40.8502 36.3816 41.0954 36.3816H47.0614C47.4701 36.3816 47.797 36.0965 47.8787 35.7298L50.8208 20.6557H54.9072C56.6643 20.6557 57.1546 20.9816 57.3181 21.1446C57.4407 21.2668 57.6859 21.7557 57.3998 23.2631L55.0298 35.4446C54.9889 35.6891 55.0298 35.9335 55.1932 36.1372C55.3567 36.3409 55.561 36.4224 55.8062 36.4224H61.9356C62.3034 36.3002 62.6303 36.015 62.712 35.6483ZM35.0885 25.0557C34.7207 26.9705 34.026 28.3557 33.0045 29.1298C31.9829 29.9039 30.3075 30.3113 28.1009 30.3113H25.4448L27.3653 20.452H30.7978C33.3314 20.452 34.3529 20.9816 34.7616 21.4298C35.2928 22.0816 35.4154 23.3446 35.0885 25.0557Z" fill="#F3F2F0"/>
<path d="M88.2107 17.4779C86.4536 15.4817 83.7158 14.4631 79.9972 14.4631H68.4329C68.0243 14.4631 67.6974 14.7483 67.6156 15.115L62.2625 42.615C62.2217 42.8594 62.2625 43.1039 62.426 43.3076C62.5894 43.5113 62.7938 43.5928 63.0389 43.5928H69.0458C69.4545 43.5928 69.7814 43.3076 69.8631 42.9409L71.1707 36.3002H75.6248C77.954 36.3002 79.9563 36.0557 81.4683 35.5668C83.062 35.0372 84.4922 34.1817 85.7589 33.0002C86.8214 32.0224 87.7204 30.9224 88.3742 29.7409C89.028 28.5594 89.5183 27.2557 89.8044 25.8298C90.4991 22.2854 89.9678 19.515 88.2107 17.4779ZM81.9586 25.0557C81.5909 26.9705 80.8962 28.3557 79.8746 29.1298C78.853 29.9039 77.1776 30.3113 74.971 30.3113H72.3149L74.2355 20.452H77.668C80.2015 20.452 81.2231 20.9817 81.6317 21.4298C82.2038 22.0817 82.3264 23.3446 81.9586 25.0557Z" fill="#F3F2F0"/>
<path d="M30.7978 19.6372C33.0861 19.6372 34.598 20.0446 35.3744 20.9002C36.1508 21.7557 36.3143 23.1817 35.9057 25.2187C35.497 27.3372 34.6798 28.8854 33.4947 29.7817C32.3097 30.678 30.5117 31.1261 28.1008 31.1261H24.4639L26.7114 19.6372H30.7978ZM16.1687 42.778H22.1756L23.6058 35.4854H28.7546C31.0429 35.4854 32.8818 35.2409 34.3529 34.752C35.8239 34.2631 37.1316 33.4891 38.3575 32.3483C39.379 31.4113 40.1963 30.3928 40.8093 29.2928C41.4222 28.1928 41.8717 26.9705 42.1169 25.6261C42.7707 22.3668 42.2803 19.8409 40.6867 18.0076C39.093 16.1743 36.5595 15.278 33.0861 15.278H21.5218L16.1687 42.778Z" fill="#F3F2F0"/>
<path d="M46.5301 7.98535H52.4961L51.0659 15.2779H56.3781C59.7289 15.2779 62.0173 15.8483 63.284 17.0298C64.5508 18.2113 64.9186 20.0854 64.4282 22.6928L61.9355 35.4854H55.8878L58.2579 23.3039C58.5439 21.9187 58.4213 20.9816 57.9718 20.4928C57.5223 20.0039 56.5007 19.7187 54.9888 19.7187H50.2078L47.143 35.4854H41.177L46.5301 7.98535Z" fill="#F3F2F0"/>
<path d="M77.6679 19.6372C79.9562 19.6372 81.4682 20.0446 82.2446 20.9002C83.021 21.7557 83.1844 23.1817 82.7758 25.2187C82.3671 27.3372 81.5499 28.8854 80.3648 29.7817C79.1798 30.678 77.3818 31.1261 74.9709 31.1261H71.3341L73.5815 19.6372H77.6679ZM63.0388 42.778H69.0457L70.4759 35.4854H75.6247C77.9131 35.4854 79.7519 35.2409 81.223 34.752C82.6941 34.2631 84.0017 33.4891 85.2276 32.3483C86.2492 31.4113 87.0664 30.3928 87.6794 29.2928C88.2923 28.1928 88.7418 26.9705 88.987 25.6261C89.6408 22.3668 89.1504 19.8409 87.5568 18.0076C85.9631 16.1743 83.4296 15.278 79.9562 15.278H68.3919L63.0388 42.778Z" fill="#F3F2F0"/>
</g>
<defs>
<radialGradient id="paint0_radial" cx="0" cy="0" r="1" gradientUnits="userSpaceOnUse" gradientTransform="translate(31.6362 9.64252) scale(68.6892 68.4832)">
<stop stop-color="white"/>
<stop offset="0.5" stop-color="#4C6B97"/>
<stop offset="1" stop-color="#231F20"/>
</radialGradient>
<clipPath id="clip0">
<rect width="104.61" height="55" fill="white" transform="translate(0.232056 0.00012207)"/>
</clipPath>
</defs>
</svg>
